<?xml version="1.0" encoding="utf-8"?>
<!-- Generator: Adobe Illustrator 26.0.2, SVG Export Plug-In . SVG Version: 6.00 Build 0)  -->
<svg version="1.1" id="Warstwa_1" xmlns="http://www.w3.org/2000/svg" xmlns:xlink="http://www.w3.org/1999/xlink" x="0px" y="0px"
	 viewBox="0 0 20 12" style="enable-background:new 0 0 20 12;" xml:space="preserve">
<style type="text/css">
	.st0{fill:#212121;}
</style>
<path class="st0" d="M14.6,5L14.6,5H3.4l3.3-3.3l0.1-0.1c0.3-0.4,0.3-1-0.1-1.3c-0.4-0.4-1-0.4-1.4,0l-5,5L0.2,5.4L0.1,5.5L0.1,5.6
	l0,0.1l0,0.1l0,0.1L0,6l0,0.1l0,0.1l0,0.1l0,0.1l0.1,0.1l0.1,0.1c0,0,0.1,0.1,0.1,0.1l5,5l0.1,0.1c0.4,0.3,1,0.3,1.3-0.1l0.1-0.1
	c0.3-0.4,0.3-1-0.1-1.3L3.4,7h11.2h0H20V5H14.6z"/>
</svg>
