<?xml version="1.0" encoding="utf-8"?>
<!-- Generator: Adobe Illustrator 26.0.2, SVG Export Plug-In . SVG Version: 6.00 Build 0)  -->
<svg version="1.1" id="Warstwa_1" xmlns="http://www.w3.org/2000/svg" xmlns:xlink="http://www.w3.org/1999/xlink" x="0px" y="0px"
	 viewBox="0 0 20 16" style="enable-background:new 0 0 20 16;" xml:space="preserve">
<style type="text/css">
	.st0{fill:#212121;}
</style>
<desc>Created with Sketch.</desc>
<g id="_xD83D__xDD0D_-System-Icons">
	<g id="ic_fluent_arrow_enter_24_filled">
		<path id="_xD83C__xDFA8_-Color" class="st0" d="M19,0c0.5,0,0.9,0.4,1,0.9L20,1v6.5c0,1.9-1.5,3.4-3.3,3.5l-0.2,0H3.4l3.3,3.3
			c0.4,0.4,0.4,0.9,0.1,1.3l-0.1,0.1c-0.4,0.4-0.9,0.4-1.3,0.1l-0.1-0.1l-5-5c0,0-0.1-0.1-0.1-0.1l-0.1-0.1l0,0l-0.1-0.1l0,0l0-0.1
			l0,0l0-0.1l0,0l0-0.1l0,0L0,10l0-0.1l0,0l0-0.1l0,0l0-0.1l0,0l0-0.1l0,0l0.1-0.1l0,0l0.1-0.1l0,0l0.1-0.1l0,0l5-5
			c0.4-0.4,1-0.4,1.4,0c0.4,0.4,0.4,0.9,0.1,1.3L6.7,5.7L3.4,9h13.1c0.8,0,1.4-0.6,1.5-1.4l0-0.1V1C18,0.4,18.4,0,19,0z"/>
	</g>
</g>
</svg>
