<?xml version="1.0" encoding="utf-8"?>
<!-- Generator: Adobe Illustrator 26.0.2, SVG Export Plug-In . SVG Version: 6.00 Build 0)  -->
<svg version="1.1" id="Object" xmlns="http://www.w3.org/2000/svg" xmlns:xlink="http://www.w3.org/1999/xlink" x="0px" y="0px"
	 viewBox="0 0 459.8 550" style="enable-background:new 0 0 459.8 550;" xml:space="preserve">
<style type="text/css">
	.st0{fill:#212121;}
	.st1{fill:#F2CB30;}
	.st2{fill:#EAB531;}
	.st3{fill:#F7DB5E;}
</style>
<path class="st0" d="M391.4,309.2h-44.7V161.5c0-64.6-52.3-116.9-116.9-116.9S113,97,113,161.5l0,0v147.7H68.4V161.5
	C68.4,72.5,140.8,0,229.9,0s161.5,72.5,161.5,161.5V309.2z"/>
<path class="st1" d="M17.3,239.1h425.1c9.6,0,17.3,7.8,17.3,17.3v276.2c0,9.6-7.8,17.3-17.3,17.3H17.3C7.8,550,0,542.2,0,532.7
	V256.5C0,246.9,7.8,239.1,17.3,239.1z"/>
<path class="st2" d="M459.8,532.7V363.4c-140.1,118.5-342,163-456.5,179.4c3.2,4.5,8.4,7.2,14,7.2h425.2
	C452,550,459.8,542.3,459.8,532.7L459.8,532.7z"/>
<path class="st0" d="M267.9,347.8c0-21-16.9-38-37.9-38.1c-21,0-38,16.9-38.1,37.9c0,12.1,5.7,23.4,15.4,30.6l-12.1,85.9h69.4
	l-12.1-85.9C262.2,371.1,267.9,359.8,267.9,347.8z"/>
<path class="st3" d="M14.5,271.9v59.5c1.6-25.3,13.7-80.2,89.8-80.2h-69C23.8,251.2,14.5,260.4,14.5,271.9z"/>
<path class="st0" d="M195.2,464.2c0,0,51.5-14.5,57.3-85.9l12.1,85.9H195.2z"/>
</svg>
